La cittadella (1964) [Divx Ita Mp3] [TNTvillage]

LA CITTADELLA

Paese: Italia
Anno: 1964
Formato: miniserie TV
Genere: sceneggiato televisivo tratto dal romanzo La cittadella
Puntate: 7
Durata: 500 min ca. (totale)
Lingua originale: italiano
Colore: bianco e nero
Audio: mono

Regia: Anton Giulio Majano
Soggetto: Archibald Joseph Cronin
Sceneggiatura: Anton Giulio Majano
Musiche: Ritz Ortolani
Produttore: RAI Radiotelevisione Italiana

Interpreti e personaggi:
Alberto Lupo - Andrew Manson
Anna Maria Guarnieri - Cristina Barlow
Carlo Hintermann - Denny
Laura Efrikian - Mary Boland
Eleonora Rossi Drago - Francis Lawrence
Loretta Goggi - Florrie
Nando Gazzolo - Freddie Hamson
Lida Ferro - Blodwen Page
Ferruccio De Ceresa - Stillman

Prima TV Italia:
dal 9 febbraio 1964
al 22 marzo 1964
Rete televisiva: Rai Programma Nazionale


La fiction racconta le commoventi avventure di un medico di provincia,
il dottor Andrew Manson, interpretato da Alberto Lupo,
impegnato a lavorare in un piccolo villaggio minerario del Galles.


La cittadella è uno sceneggiato televisivo tratto dall'omonimo romanzo
La cittadella (The Citadel) di Archibald Joseph Cronin.
Fu prodotto dalla RAI nel 1964 riscosse uno straordinario successo di pubblico.

General
Complete name                    : [DivX.-.ITA].-.La.cittadella.-.[1964].-.[1.di.7].-.[A..Lupo.-.Guarnieri].avi
Format                           : AVI
Format/Info                      : Audio Video Interleave
File size                        : 692 MiB
Duration                         : 1h 31mn
Overall bit rate                 : 1 060 Kbps

Video
ID                               : 0
Format                           : MPEG-4 Visual
Format settings, BVOP            : No
Format settings, QPel            : No
Format settings, GMC             : No warppoints
Format settings, Matrix          : Default (H.263)
Codec ID                         : DX50
Codec ID/Hint                    : DivX 5
Duration                         : 1h 31mn
Bit rate                         : 918 Kbps
Width                            : 720 pixels
Height                           : 416 pixels
Display aspect ratio             : 16:9
Frame rate                       : 25.000 fps
Resolution                       : 8 bits
Colorimetry                      : 4:2:0
Scan type                        : Progressive
Bits/(Pixel*Frame)               : 0.123
Stream size                      : 600 MiB (87%)
Title                            : NeoVideo92CF
Writing library                  : DivX 5.0.3 (UTC 2003-01-24)

Audio
ID                               : 1
Format                           : MPEG Audio
Format version                   : Version 1
Format profile                   : Layer 3
Format_Settings_Mode             : Joint stereo / MS Stereo
Codec ID                         : 55
Codec ID/Hint                    : MP3
Duration                         : 1h 31mn
Bit rate mode                    : Constant
Bit rate                         : 128 Kbps
Channel(s)                       : 2 channels
Sampling rate                    : 48.0 KHz
Stream size                      : 83.6 MiB (12%)
Alignment                        : Split accross interleaves
Interleave, duration             : 24 ms (0.60 video frame)
Title                            : NeoSound92CF0

Visit http://www.tntvillage.scambioetico.org/